<svg xmlns="http://www.w3.org/2000/svg" viewBox="0 0 500 500.31"><defs><style>.cls-1{fill:#fff;}</style></defs><title>Asset 2</title><g id="Layer_2" data-name="Layer 2"><g id="Layer_1-2" data-name="Layer 1"><path d="M0,116.5Q0,58.25,0,0H500V116.5a20.48,20.48,0,0,1-6.94.73c-.36,3-.66,5.79-1.07,8.58a99.7,99.7,0,0,0-1.06,11c-.15,4.7-.41,9.39-.62,14.09-.1,2.2-.23,4.41-.23,6.61,0,3.83.09,7.66.11,11.49a19.22,19.22,0,0,0,1.22,7.46,18.2,18.2,0,0,1,1.18,7.57c-.11,5.25,0,10.5-.16,15.74-.09,3.66-.36,7.31-.58,11-.1,1.74-.26,3.48-.4,5.22s-.22,3.49-.43,5.22c-.59,4.87-1.27,9.73-1.83,14.6-.21,1.81-.08,3.67-.27,5.48-.56,5.29-.6,10.63-1.44,15.9-.68,4.27-1.17,8.57-1.73,12.85a44.61,44.61,0,0,0-.52,4.59c-.08,3.12,0,6.24,0,9.36a61.18,61.18,0,0,0,1.12,10.66,31.81,31.81,0,0,1,.73,4.67c.06,4.7,0,9.41-.09,14.12,0,.21,0,.42,0,.62a71,71,0,0,1-2.22,13.9c-.53,1.75-.78,3.57-1.29,5.32-.86,3-1.83,6-2.75,8.94a40.83,40.83,0,0,0-1.94,10.27c-.19,4.36-.24,8.73-.41,13.1-.1,2.62-.2,5.24-.47,7.84-.31,3-.75,6-1.25,9a67.18,67.18,0,0,1-2.16,9.73,43.69,43.69,0,0,0-2.08,9.48c-.21,2.28-.63,4.53-.88,6.8-.38,3.51-.6,7-1.07,10.54-.61,4.53-1.44,9-2.12,13.56a43.59,43.59,0,0,0-.67,5.82c-.09,5.66,0,11.33,0,17,0,.49,0,1,.08,1.48.43.15.77.31,1.13.4a27.15,27.15,0,0,1,7.24,2.49c.58.33,1.21.57,1.75.95,1.51,1,3,2.12,4.48,3.17s1.7,1.14,3.3.05c.69-.47,1.34-1,2-1.49,1.39-1.06,2.71-2.21,4.18-3.15a9.43,9.43,0,0,0,3.3-3.51c.83-1.54,2.25-2.41,3.46-3.53a.67.67,0,0,1,1.08.07,4.61,4.61,0,0,0,.43.4V500c-.5,0-1,0-1.5,0H1.5c-.5,0-1,0-1.5,0V453.75a3.85,3.85,0,0,1,4,1.89,4.22,4.22,0,0,0,1.34,1.29c.84.49,1.82,1.09,2.78.55a35.21,35.21,0,0,0,4.9-3.2c2.7-2.2,5.27-4.58,7.89-6.89,1.12-1,2.25-2,3.35-3a2.58,2.58,0,0,0,.92-1.84c.2-4.95.56-9.89.58-14.84a100.83,100.83,0,0,0-.38-10.46,35.27,35.27,0,0,1,.27-6.85c.34-3.52.84-7,1.24-10.53.58-5.17,1.13-10.34,1.7-15.5.13-1.18.28-2.36.42-3.54a.7.7,0,0,1,.43.49c.14.82.31,1.64.38,2.46a19.69,19.69,0,0,0,1.57,5.88A8.63,8.63,0,0,0,34,392.82c.73.62,1.36.33,1.64-.59q1.1-3.57,2.23-7.14c.45-1.43,1-2.83,1.37-4.27a10.92,10.92,0,0,0,.08-5.31,18.76,18.76,0,0,1-.57-3.93c0-5.67-.81-11.28-1.11-16.93a44.76,44.76,0,0,1,.3-7.33c.51-4.63,1.3-9.23,1.66-13.87.27-3.39.06-6.81,0-10.22a14.84,14.84,0,0,0-.18-2.49c-.73-4.09-1.45-8.18-2.26-12.26-1-5.18-2.12-10.35-3.21-15.52a37.69,37.69,0,0,0-3.32-10.17,2.44,2.44,0,0,1-.2-1.2c.11-2.83.26-5.65.38-8.47.17-4.11.38-8.23.47-12.34.1-4.54.05-9.08.15-13.62.11-4.82.24-9.65.53-14.46a33.38,33.38,0,0,0-1-10,3.09,3.09,0,0,0-1.43-2c-1.14.39-2,1.28-3.29,1.46a6.54,6.54,0,0,1-.4-.66,39.78,39.78,0,0,1-2.48-9,66.07,66.07,0,0,1-1-12.3c0-6.7,0-13.41.13-20.11,0-1.83.21-3.65.31-5.48.19-3.57.49-7.14.52-10.71,0-4.7-.08-9.41-.24-14.11-.13-3.78-.31-7.56-.65-11.33-.53-5.84-1.12-11.68-1.86-17.49a124.27,124.27,0,0,0-2.72-15c-.1-.39-.24-.76-.4-1.24-.62.26-1.11.49-1.61.66-1.3.44-2.59.91-3.91,1.25a2.89,2.89,0,0,0-1.77,1c-1.22,1.63-2.55,3.19-3.67,4.88a7.53,7.53,0,0,1-3.65,2.85C1.88,115.84.93,116.16,0,116.5ZM92.16,223.21a4.08,4.08,0,0,0-.88-.17c-.77,0-1.58,0-2.17.67-1,1.18-2,2.38-3,3.48a24,24,0,0,1-2.49,2,.9.9,0,0,1-1.41-.22,8.6,8.6,0,0,1-1.1-1.66c-.81-1.91-1.53-3.85-2.28-5.78a3.89,3.89,0,0,0-.26.56c-.64,2.11-1.24,4.23-1.92,6.32A127.06,127.06,0,0,1,71,242.86a18.51,18.51,0,0,0-1.95,8.56c.07,2,.14,4,.12,6a97,97,0,0,0,.52,10.84,35.85,35.85,0,0,0,.8,5.54,58.32,58.32,0,0,1,1.42,9.74c.17,1.86.05,3.76.29,5.61.47,3.6.3,7.23.6,10.84.29,3.44.61,6.88,1,10.3.37,3.1,1,6.16,1.28,9.27s.32,6.4.43,9.6c.07,2.12.07,4.25.14,6.37.1,2.82.74,5.44,3.09,7.32a6.06,6.06,0,0,0,3.61,1.78l1.45-4.39a3.78,3.78,0,0,1,.71,2.44c-.12,17.91.28,35.83-.28,53.73a76.27,76.27,0,0,1-.91,9.18A104.75,104.75,0,0,1,80.05,419a29.58,29.58,0,0,0-1.33,8.73,41.19,41.19,0,0,0,1.88,11.66,20.66,20.66,0,0,1,.91,4.5,23,23,0,0,1-.06,3.24c-.13,2-.25,4.07-.46,6.09-.16,1.54.25,2.08,1.78,2.09,3.17,0,6.33,0,9.5,0a2,2,0,0,1,1.45.53,41.9,41.9,0,0,0,9.5,6.58,10.13,10.13,0,0,0,2.19.87,9.41,9.41,0,0,0,5-.16,23.15,23.15,0,0,0,8.27-4.21c1-.87,1.92-1.84,2.9-2.75a2.43,2.43,0,0,1,.9-.61c1.48-.41,3-.71,4.45-1.14q11.64-3.47,23.26-7c2.74-.83,5.44-1.83,8.2-2.56,4.33-1.15,8.69-2.18,13.07-3.17,1.9-.43,3.85-.62,5.78-.89a1.1,1.1,0,0,1,1.2.44c1.58,2.35,3.28,4.62,4.74,7a53.21,53.21,0,0,0,4.29,6.72,2,2,0,0,0,1.8.86c1-.06,1.92,0,2.87,0a1.08,1.08,0,0,1,1.15.73c.66,1.39,1.49,2.72,2,4.15,1.56,4.11,4.15,7.57,6.8,11a3.31,3.31,0,0,0,1.46,1.07,6.53,6.53,0,0,0,2.21.26,41.62,41.62,0,0,0,8.63-.93,45.73,45.73,0,0,0,11.66-4.26,40.44,40.44,0,0,0,6.16-4c2.54-2.08,5.15-4.08,7.72-6.11.52-.41,1-.89,1.54-1.26a2.22,2.22,0,0,1,1.13-.39c1.46,0,2.92,0,4.37.05a1.45,1.45,0,0,1,1,.42c1.72,2,3.44,4.06,5.09,6.15,1.49,1.89,2.74,4,4.66,5.49a21.92,21.92,0,0,1,1.79,1.33c1.56,1.52,3.38,1.52,5.34,1.11a31.52,31.52,0,0,0,8-3.35,46.37,46.37,0,0,0,4.29-3c1.29-.87,2.36-1.82,2.17-3.57a1.38,1.38,0,0,1,.08-.36c.37-2,.73-3.92,1.1-5.88a3.11,3.11,0,0,1,.26-.82,24.54,24.54,0,0,1,5.21-7c2-1.8,4.06-3.44,6.07-5.19.88-.76,1.68-1.61,2.5-2.44a1.35,1.35,0,0,0,.4-.62c.21-1.1.39-2.21.56-3.32.33-2.05.55-4.12,1-6.15.52-2.4,1.2-4.76,1.83-7.13a26.32,26.32,0,0,0,.94-7.53c0-1.17,0-2.33,0-3.5a21.78,21.78,0,0,0-.9-7.39,2.94,2.94,0,0,1-.1-.49,66.3,66.3,0,0,1-.73-12.56,9.29,9.29,0,0,1,2.3-6.05c.43-.51.85-1,1.26-1.55a3.56,3.56,0,0,0,.88-3c-.64-3.31-1.21-6.63-1.87-9.93-.38-1.91-1-3.79-1.29-5.71-.89-6.3-1.66-12.62-2.47-18.93q-.7-5.45-1.35-10.9c-.42-3.51-.79-7-1.21-10.54a11,11,0,0,0-1.63-5.05,16.19,16.19,0,0,1-1.58-3.11,18.93,18.93,0,0,1-1.55-9.13c.36-3.26.57-6.56,1.18-9.77,1-5.27,2.31-10.48,3.44-15.72a23.3,23.3,0,0,0,.58-4.19c.05-1.78-.1-3.57-.21-5.36-.21-3.36-.39-6.73-.7-10.08a10.75,10.75,0,0,0-.91-3.73,23.28,23.28,0,0,1-2.26-9.63c-.06-1.41-.09-2.83-.21-4.24-.19-2.28-.41-4.56-.69-6.82-.25-2-.61-3.94-.93-5.91a2.11,2.11,0,0,0-1-1.69c-.19.13-.39.26-.59.41a25.84,25.84,0,0,0-4.39,4.92c-.31.41-.7.75-1.21,1.29-.61-1.21-1.16-2.19-1.61-3.2-1.1-2.47-2.06-5-3.26-7.42s-2.58-4.56-3.81-6.88a12.65,12.65,0,0,1-1.9-4.71q-.64-6.77-1.42-13.52c-.29-2.52-.58-5-1.07-7.52a50.79,50.79,0,0,0-3.41-10,10.51,10.51,0,0,1-.78-2.36q-.57-3.38-1-6.79c-.31-2.68-.53-5.38-.8-8.07s-.62-5.37-.82-8.06c-.24-3.19-.3-6.4-.54-9.59-.37-4.89-.78-9.78-1.25-14.67-.37-3.81-.88-7.6-1.32-11.4-.3-2.56-.63-5.12-.89-7.69-.53-5.38-1-10.76-1.54-16.14,0-.38-.15-.76-.25-1.24-.57.32-1,.56-1.36.77-.92.47-1.85.93-2.79,1.39a.78.78,0,0,1-1.11-.18c-1.57-2-3.16-4.06-4.74-6.09a5.44,5.44,0,0,1-.36-.66c-1-1.77-1.91-3.61-3-5.28-2.27-3.33-5.42-5.85-8.29-8.62a4.31,4.31,0,0,0-.82-.57,4.93,4.93,0,0,0-3.8-.78,12.38,12.38,0,0,1-2.72.29c-4.58,0-9.17.11-13.75,0a6.38,6.38,0,0,0-4.52,2,29.66,29.66,0,0,0-2.41,2.7,39.9,39.9,0,0,1-8.15,7.31C196.09,90,194.46,91,192.86,92a1.83,1.83,0,0,1-1.69.32c-.37-1.11-.8-2.24-1.11-3.4-1.09-4.14-2.16-8.29-3.16-12.45A4.89,4.89,0,0,0,185.54,74a36.34,36.34,0,0,0-5.92-4.34c-2.34-1.5-5-1.84-7.6-2.1a2,2,0,0,0-1.35.45c-1.35,1.23-2.64,2.53-3.93,3.83a84.81,84.81,0,0,0-8.26,9.18,3.36,3.36,0,0,1-.41.47,100.26,100.26,0,0,0-9.13,10.4,20.23,20.23,0,0,0-1.74,2.58c-.81,1.4-1.46,2.9-2.33,4.26-1.58,2.45-3.24,4.84-4.94,7.21a23,23,0,0,1-2.95,3.54,16.26,16.26,0,0,1-4.31,2.71c-1.62.75-3.24,1.34-5,.54a1.37,1.37,0,0,0-.37-.06,2.92,2.92,0,0,1-2-1.19c-1.06-1.38-2.16-2.74-3.14-4.18-.74-1.09-1.32-2.3-2-3.46-1.13-2-2.27-4-3.42-5.94-.1-.17-.35-.26-.62-.45-.09.32-.16.51-.19.7-.56,3.41-1.08,6.82-1.67,10.23a117,117,0,0,0-1.33,12.4c-.13,2-.16,4-.34,6-.25,2.73-.61,5.46-.91,8.18-.4,3.51-.77,7-1.19,10.54q-.5,4.21-1.06,8.42c-.59,4.33-1,8.69-1.87,13-.67,3.41-1.82,6.74-2.82,10.08-.85,2.82-1.8,5.62-2.72,8.42-.32,1-.6,2-1,2.95a55,55,0,0,0-3.35,10.7,23.46,23.46,0,0,1-.66,2.66c-.55,1.79-1.21,3.54-1.72,5.34a97.61,97.61,0,0,0-2.65,12.18C92.49,220.51,92.34,221.78,92.16,223.21ZM336.35,98.87a2.56,2.56,0,0,0-.13.5c.11,3.83.21,7.65.35,11.48.08,2.24.31,4.49.31,6.73a73.12,73.12,0,0,1-.29,8.1c-.39,3.55-1.07,7.07-1.62,10.6a6.33,6.33,0,0,0,.45,3.53c.49,1.15.87,2.34,1.41,3.46a8.14,8.14,0,0,1,.72,3.39c.09,3.11.08,6.23.29,9.34.17,2.54.15,5.06.12,7.6a33.42,33.42,0,0,1-1.43,9.46,18,18,0,0,0-.84,5.78c.1,3.62.29,7.23.35,10.85.06,3.79,0,7.58,0,11.37,0,1.5.05,3,.21,4.49.43,4.05.88,8.1.94,12.18a34.6,34.6,0,0,0,.5,4.07,19,19,0,0,1,.32,2.33c0,4,0,8.08,0,12.12a27,27,0,0,1-.84,7.29c-.63,2.19-1.08,4.44-1.63,6.66a13.4,13.4,0,0,1-2,4.81,7.8,7.8,0,0,0-1.51,3.79c-.36,3.6-.8,7.19-1,10.8-.19,3.95-.13,7.91-.15,11.86a12.44,12.44,0,0,1-1.55,5.85,4.92,4.92,0,0,1-1.72,2l-1.78-4.18c-.6.52-.45,1.09-.46,1.6a61.26,61.26,0,0,1-1.05,11.16c-.51,2.48-1.15,4.95-1.55,7.44a40.34,40.34,0,0,0-.66,6.69c0,3.74.25,7.48.54,11.21.23,2.94.64,5.87,1,8.79.46,3.37,1,6.73,1.5,10.11a33.14,33.14,0,0,1-.44,10.19A70.89,70.89,0,0,1,321,364.71a28.42,28.42,0,0,1-3,6.13,14.24,14.24,0,0,0-2.11,10c.46,3.8,1,7.59,1.57,11.37a13,13,0,0,0,.9,2.84c1.4,3.47,2.88,6.91,4.25,10.39a9.26,9.26,0,0,1,.39,6.47,33.79,33.79,0,0,0-1,4.37,47.1,47.1,0,0,0-1,11c0,1.21.12,2.41.12,3.62a23.38,23.38,0,0,0,.73,6.42,15.66,15.66,0,0,1,.28,2.09,42.08,42.08,0,0,0,.7,4.55A113.82,113.82,0,0,1,325.4,456a18.89,18.89,0,0,0,1.06,3.44,3.78,3.78,0,0,0,.69.88l1.2-.89c.87-.65,1.72-1.31,2.6-1.93s1.86-1.33,3.17-1a6.56,6.56,0,0,0,1.74,0c2.37,0,4.75,0,7.12,0a1.51,1.51,0,0,1,1.48.7c1,1.66,2.08,3.3,3.06,5,.47.82.71,1.78,1.2,2.6.82,1.39,1.71,2.75,2.65,4.06a26.46,26.46,0,0,0,2.38,2.86c1.06,1.11,2.22,2.11,3.32,3.18.54.52,1,1.13,1.57,1.6a2.12,2.12,0,0,0,1.22.46,8.83,8.83,0,0,0,1.71-.29,46.5,46.5,0,0,0,8.17-2.63,12.16,12.16,0,0,0,3.75-2.19,47.83,47.83,0,0,1,5.24-4.22,42,42,0,0,1,7.77-4.21,4.35,4.35,0,0,1,3.12-.47c1.77.6,3.57,1.12,5.33,1.73a21.07,21.07,0,0,0,6.79,1.41,5,5,0,0,0,3.71-1.46c2-1.92,4-3.81,5.83-5.81a2.09,2.09,0,0,1,2.74-.56c1,.49,2,1,3,1.53,1.41.79,2.79,1.63,4.19,2.43s2.65,1.56,4,2.25c1.61.82,3.33.55,5,.21,1.5-.31,3-.71,4.46-1.12a9.78,9.78,0,0,0,2.18-.85c2.19-1.25,4.34-2.56,6.64-3.92,1.08,1,2.23,2.07,3.4,3.12,1,.92,2,1.84,3.12,2.68a2,2,0,0,0,1.37.38,8.87,8.87,0,0,0,5.13-2.3,2.39,2.39,0,0,0,.8-1.82c0-5.75,0-11.5,0-17.25,0-.5,0-1,0-1.5q.28-4.23.57-8.46c.29-4.27.62-8.54.87-12.81a88.74,88.74,0,0,0,.25-12.72,26.58,26.58,0,0,0-1.75-8.14c-1-2.34-2-4.65-3-7a4.25,4.25,0,0,1-.43-1.4c-.09-1.83-.14-3.66-.13-5.49,0-2.21,0-4.41.12-6.62a55.29,55.29,0,0,1,1.17-9.4A64.71,64.71,0,0,0,456.74,354c-.26-5.65-.31-11.31-.93-16.94-.5-4.51-.95-9-1.45-13.52a117.63,117.63,0,0,1-.91-13.56c0-2.58.35-5.15.33-7.73,0-4.87-.15-9.74-.38-14.6-.13-2.74-.47-5.47-.87-8.18-.48-3.29-1.19-6.55-1.67-9.84-1.25-8.6-2.53-17.2-4.12-25.75A180.68,180.68,0,0,1,444.21,226c-.26-3.07-.54-6.13-.64-9.21-.11-3.37,0-6.74,0-10.11s.36-2.49-1.7-4.61l-.35-.35c-.93-.89-1.31-.79-2,.36-.86,1.47-1.78,2.91-2.69,4.35a5.47,5.47,0,0,1-.69.73,30.65,30.65,0,0,0-1-3.13c-2-4.63-2.75-9.58-3.82-14.44-.58-2.63-.66-5.37-1.13-8-.87-5-1.89-9.88-2.78-14.83-.6-3.31-1.14-6.64-1.6-10-.37-2.68-.53-5.38-.89-8.06-.58-4.33-1.25-8.64-1.9-13a66,66,0,0,0-1.1-6.64A101.9,101.9,0,0,1,419.57,114c-.46-4.55-.85-9.11-1.25-13.67a1.65,1.65,0,0,0-.61-1.15,42.14,42.14,0,0,1-3.89-3.85c-2.59-3.15-5.08-6.37-7.54-9.63a47,47,0,0,0-4.68-5.84c-1.95-1.87-3.82-3.83-5.67-5.79a5,5,0,0,0-3.56-1.55,22.27,22.27,0,0,0-3.72.22,5.18,5.18,0,0,0-1.75.59,69.5,69.5,0,0,0-12.41,8.56,42,42,0,0,0-3.21,2.77c-2.71,2.82-5.34,5.71-8,8.58q-1.73,1.88-3.42,3.8c-1.12,1.28-2.15,2.65-3.34,3.87a26.21,26.21,0,0,1-3.32,2.8c-.8.58-1.77.91-2.62,1.43a4.37,4.37,0,0,1-3.24.54,7.59,7.59,0,0,1-3.13-1.45c-.53-.4-1.08-.78-1.63-1.15l-4.45-3Z"/><path class="cls-1" d="M0,116.5c.93-.34,1.88-.66,2.8-1a7.53,7.53,0,0,0,3.65-2.85c1.12-1.69,2.45-3.25,3.67-4.88a2.89,2.89,0,0,1,1.77-1c1.32-.34,2.61-.81,3.91-1.25.5-.17,1-.4,1.61-.66.16.48.3.86.4,1.24a124.27,124.27,0,0,1,2.72,15c.74,5.82,1.33,11.65,1.86,17.49.34,3.77.53,7.55.65,11.33.16,4.7.28,9.4.24,14.11,0,3.57-.33,7.14-.52,10.71-.1,1.83-.29,3.65-.31,5.48-.08,6.7-.14,13.41-.13,20.11a66.07,66.07,0,0,0,1,12.3,39.78,39.78,0,0,0,2.48,9,6.54,6.54,0,0,0,.4.66c1.24-.18,2.15-1.07,3.29-1.46a3.09,3.09,0,0,1,1.43,2,33.38,33.38,0,0,1,1,10c-.29,4.82-.42,9.64-.53,14.46-.1,4.54-.05,9.08-.15,13.62-.09,4.12-.3,8.23-.47,12.34-.12,2.83-.27,5.65-.38,8.47a2.44,2.44,0,0,0,.2,1.2A37.69,37.69,0,0,1,34,293c1.09,5.17,2.18,10.34,3.21,15.52.81,4.08,1.53,8.17,2.26,12.26a14.84,14.84,0,0,1,.18,2.49c0,3.41.23,6.84,0,10.22-.37,4.64-1.15,9.24-1.66,13.87a44.76,44.76,0,0,0-.3,7.33c.3,5.65,1.15,11.26,1.11,16.93a18.76,18.76,0,0,0,.57,3.93,10.92,10.92,0,0,1-.08,5.31c-.41,1.44-.92,2.85-1.37,4.27q-1.12,3.57-2.23,7.14c-.28.92-.91,1.21-1.64.59a8.63,8.63,0,0,1-2.59-3.15,19.69,19.69,0,0,1-1.57-5.88c-.08-.83-.24-1.64-.38-2.46a.7.7,0,0,0-.43-.49c-.14,1.18-.29,2.36-.42,3.54-.57,5.17-1.12,10.34-1.7,15.5-.4,3.51-.9,7-1.24,10.53a35.27,35.27,0,0,0-.27,6.85,100.83,100.83,0,0,1,.38,10.46c0,4.95-.38,9.89-.58,14.84a2.58,2.58,0,0,1-.92,1.84c-1.1,1-2.23,2-3.35,3-2.62,2.31-5.18,4.68-7.89,6.89a35.21,35.21,0,0,1-4.9,3.2c-1,.54-1.94-.06-2.78-.55A4.22,4.22,0,0,1,4,455.64a3.85,3.85,0,0,0-4-1.89Q0,285.13,0,116.5Z"/><path class="cls-1" d="M500,452.75a4.61,4.61,0,0,1-.43-.4.67.67,0,0,0-1.08-.07c-1.21,1.12-2.63,2-3.46,3.53a9.43,9.43,0,0,1-3.3,3.51c-1.47.94-2.79,2.09-4.18,3.15-.66.5-1.32,1-2,1.49-1.6,1.09-1.69,1.08-3.3-.05s-3-2.14-4.48-3.17c-.54-.37-1.17-.62-1.75-.95a27.15,27.15,0,0,0-7.24-2.49c-.36-.09-.7-.24-1.13-.4,0-.5-.08-1-.08-1.48,0-5.67-.06-11.33,0-17a43.59,43.59,0,0,1,.67-5.82c.69-4.52,1.51-9,2.12-13.56.47-3.5.69-7,1.07-10.54.25-2.27.67-4.53.88-6.8a43.69,43.69,0,0,1,2.08-9.48,67.18,67.18,0,0,0,2.16-9.73c.5-3,.94-6,1.25-9,.27-2.6.37-5.22.47-7.84.16-4.37.21-8.74.41-13.1a40.83,40.83,0,0,1,1.94-10.27c.92-3,1.88-5.95,2.75-8.94.51-1.75.76-3.58,1.29-5.32a71,71,0,0,0,2.22-13.9c0-.21,0-.42,0-.62,0-4.71.15-9.41.09-14.12a31.81,31.81,0,0,0-.73-4.67A61.18,61.18,0,0,1,485.19,284c0-3.12,0-6.24,0-9.36a44.61,44.61,0,0,1,.52-4.59c.56-4.29,1-8.59,1.73-12.85.84-5.27.88-10.61,1.44-15.9.19-1.82.06-3.67.27-5.48.56-4.87,1.24-9.73,1.83-14.6.21-1.73.29-3.48.43-5.22s.3-3.48.4-5.22c.22-3.65.49-7.3.58-11,.12-5.25.06-10.5.16-15.74a18.2,18.2,0,0,0-1.18-7.57,19.22,19.22,0,0,1-1.22-7.46c0-3.83-.11-7.66-.11-11.49,0-2.2.14-4.41.23-6.61.2-4.7.46-9.39.62-14.09a99.7,99.7,0,0,1,1.06-11c.41-2.8.7-5.61,1.07-8.58a20.48,20.48,0,0,0,6.94-.73Z"/><path class="cls-1" d="M0,500c.5,0,1,0,1.5,0h497c.5,0,1,0,1.5,0,0,.08-.08.24-.13.24-.33,0-.67,0-1,0q-248.88,0-497.75,0C.76,500.23.28,500.52,0,500Z"/><path class="cls-1" d="M92.16,223.21c.18-1.42.33-2.7.52-4a97.61,97.61,0,0,1,2.65-12.18c.5-1.8,1.16-3.55,1.72-5.34a23.46,23.46,0,0,0,.66-2.66,55,55,0,0,1,3.35-10.7c.39-1,.67-2,1-2.95.91-2.81,1.86-5.6,2.72-8.42,1-3.34,2.15-6.67,2.82-10.08.84-4.28,1.28-8.64,1.87-13q.57-4.2,1.06-8.42c.41-3.51.79-7,1.19-10.54.31-2.73.66-5.45.91-8.18.18-2,.21-4,.34-6a117,117,0,0,1,1.33-12.4c.59-3.4,1.11-6.82,1.67-10.23,0-.19.1-.38.19-.7.27.19.52.28.62.45,1.15,2,2.29,4,3.42,5.94.66,1.15,1.24,2.36,2,3.46,1,1.44,2.08,2.8,3.14,4.18a2.92,2.92,0,0,0,2,1.19,1.37,1.37,0,0,1,.37.06c1.78.79,3.4.2,5-.54a16.26,16.26,0,0,0,4.31-2.71,23,23,0,0,0,2.95-3.54c1.7-2.37,3.36-4.76,4.94-7.21.88-1.36,1.52-2.86,2.33-4.26a20.23,20.23,0,0,1,1.74-2.58,100.26,100.26,0,0,1,9.13-10.4,3.36,3.36,0,0,0,.41-.47,84.81,84.81,0,0,1,8.26-9.18c1.28-1.3,2.58-2.6,3.93-3.83A2,2,0,0,1,172,67.6c2.65.26,5.26.61,7.6,2.1A36.34,36.34,0,0,1,185.54,74a4.89,4.89,0,0,1,1.36,2.46c1,4.16,2.07,8.31,3.16,12.45.3,1.16.74,2.28,1.11,3.4a1.83,1.83,0,0,0,1.69-.32c1.6-1,3.23-2,4.83-3.1a39.9,39.9,0,0,0,8.15-7.31,29.66,29.66,0,0,1,2.41-2.7,6.38,6.38,0,0,1,4.52-2c4.58.07,9.16,0,13.75,0a12.38,12.38,0,0,0,2.72-.29,4.93,4.93,0,0,1,3.8.78,4.31,4.31,0,0,1,.82.57c2.87,2.77,6,5.29,8.29,8.62,1.14,1.68,2,3.52,3,5.28a5.44,5.44,0,0,0,.36.66c1.58,2,3.17,4.06,4.74,6.09a.78.78,0,0,0,1.11.18c.93-.46,1.86-.92,2.79-1.39.4-.21.79-.44,1.36-.77.1.48.21.86.25,1.24.52,5.38,1,10.76,1.54,16.14.25,2.57.59,5.12.89,7.69.44,3.8,1,7.6,1.32,11.4.48,4.88.89,9.77,1.25,14.67.24,3.19.3,6.4.54,9.59.2,2.69.55,5.38.82,8.06s.49,5.38.8,8.07q.4,3.41,1,6.79a10.51,10.51,0,0,0,.78,2.36,50.79,50.79,0,0,1,3.41,10c.5,2.48.79,5,1.07,7.52q.77,6.75,1.42,13.52a12.65,12.65,0,0,0,1.9,4.71c1.23,2.31,2.65,4.53,3.81,6.88s2.16,5,3.26,7.42c.45,1,1,2,1.61,3.2.51-.54.9-.89,1.21-1.29a25.84,25.84,0,0,1,4.39-4.92c.19-.15.4-.28.59-.41a2.11,2.11,0,0,1,1,1.69c.33,2,.68,3.93.93,5.91.29,2.27.5,4.55.69,6.82.12,1.41.15,2.82.21,4.24a23.28,23.28,0,0,0,2.26,9.63,10.75,10.75,0,0,1,.91,3.73c.31,3.35.49,6.72.7,10.08.11,1.78.26,3.58.21,5.36a23.3,23.3,0,0,1-.58,4.19c-1.13,5.25-2.43,10.46-3.44,15.72-.61,3.22-.83,6.51-1.18,9.77a18.93,18.93,0,0,0,1.55,9.13,16.19,16.19,0,0,0,1.58,3.11,11,11,0,0,1,1.63,5.05c.42,3.51.79,7,1.21,10.54s.89,7.27,1.35,10.9c.81,6.31,1.58,12.63,2.47,18.93.27,1.93.91,3.8,1.29,5.71.66,3.3,1.23,6.62,1.87,9.93a3.56,3.56,0,0,1-.88,3c-.41.52-.83,1-1.26,1.55a9.29,9.29,0,0,0-2.3,6.05,66.3,66.3,0,0,0,.73,12.56,2.94,2.94,0,0,0,.1.49,21.78,21.78,0,0,1,.9,7.39c0,1.17,0,2.33,0,3.5a26.32,26.32,0,0,1-.94,7.53c-.62,2.37-1.31,4.73-1.83,7.13-.44,2-.66,4.1-1,6.15-.18,1.11-.35,2.22-.56,3.32a1.35,1.35,0,0,1-.4.62c-.82.83-1.62,1.68-2.5,2.44-2,1.75-4.11,3.39-6.07,5.19a24.54,24.54,0,0,0-5.21,7,3.11,3.11,0,0,0-.26.82c-.37,2-.74,3.92-1.1,5.88a1.38,1.38,0,0,0-.08.36c.19,1.75-.89,2.7-2.17,3.57a46.37,46.37,0,0,1-4.29,3,31.52,31.52,0,0,1-8,3.35c-2,.4-3.78.41-5.34-1.11a21.92,21.92,0,0,0-1.79-1.33c-1.92-1.52-3.17-3.6-4.66-5.49-1.65-2.09-3.36-4.12-5.09-6.15a1.45,1.45,0,0,0-1-.42c-1.46-.06-2.92-.08-4.37-.05a2.22,2.22,0,0,0-1.13.39c-.55.37-1,.85-1.54,1.26-2.57,2-5.18,4-7.72,6.11a40.44,40.44,0,0,1-6.16,4,45.73,45.73,0,0,1-11.66,4.26,41.62,41.62,0,0,1-8.63.93,6.53,6.53,0,0,1-2.21-.26,3.31,3.31,0,0,1-1.46-1.07c-2.65-3.42-5.24-6.87-6.8-11-.54-1.43-1.37-2.76-2-4.15a1.08,1.08,0,0,0-1.15-.73c-1,0-1.92,0-2.87,0a2,2,0,0,1-1.8-.86,53.21,53.21,0,0,1-4.29-6.72c-1.47-2.41-3.17-4.68-4.74-7a1.1,1.1,0,0,0-1.2-.44c-1.93.27-3.88.47-5.78.89-4.37,1-8.73,2-13.07,3.17-2.77.73-5.46,1.73-8.2,2.56q-11.62,3.52-23.26,7c-1.47.44-3,.73-4.45,1.14a2.43,2.43,0,0,0-.9.61c-1,.91-1.89,1.88-2.9,2.75a23.15,23.15,0,0,1-8.27,4.21,9.41,9.41,0,0,1-5,.16,10.13,10.13,0,0,1-2.19-.87,41.9,41.9,0,0,1-9.5-6.58,2,2,0,0,0-1.45-.53c-3.17,0-6.33,0-9.5,0-1.53,0-1.94-.55-1.78-2.09.21-2,.33-4.06.46-6.09a23,23,0,0,0,.06-3.24,20.66,20.66,0,0,0-.91-4.5,41.19,41.19,0,0,1-1.88-11.66A29.58,29.58,0,0,1,80.05,419a104.75,104.75,0,0,0,3.32-13.44,76.27,76.27,0,0,0,.91-9.18c.57-17.91.17-35.82.28-53.73a3.78,3.78,0,0,0-.71-2.44l-1.45,4.39a6.06,6.06,0,0,1-3.61-1.78c-2.36-1.88-3-4.49-3.09-7.32-.07-2.12-.07-4.25-.14-6.37-.11-3.2-.14-6.41-.43-9.6s-.91-6.17-1.28-9.27c-.41-3.43-.73-6.86-1-10.3-.3-3.6-.13-7.23-.6-10.84-.24-1.85-.12-3.74-.29-5.61a58.32,58.32,0,0,0-1.42-9.74,35.85,35.85,0,0,1-.8-5.54,97,97,0,0,1-.52-10.84c0-2-.05-4-.12-6A18.51,18.51,0,0,1,71,242.86a127.06,127.06,0,0,0,5.61-14.41c.68-2.09,1.28-4.22,1.92-6.32a3.89,3.89,0,0,1,.26-.56c.75,1.92,1.48,3.87,2.28,5.78a8.6,8.6,0,0,0,1.1,1.66.9.9,0,0,0,1.41.22,24,24,0,0,0,2.49-2c1.07-1.1,2-2.3,3-3.48.59-.7,1.4-.62,2.17-.67A4.08,4.08,0,0,1,92.16,223.21Z"/><path class="cls-1" d="M336.35,98.87l1.78,1.19,4.45,3c.55.37,1.1.75,1.63,1.15a7.59,7.59,0,0,0,3.13,1.45,4.37,4.37,0,0,0,3.24-.54c.85-.52,1.82-.85,2.62-1.43a26.21,26.21,0,0,0,3.32-2.8c1.19-1.21,2.22-2.58,3.34-3.87s2.27-2.55,3.42-3.8c2.65-2.87,5.29-5.76,8-8.58a42,42,0,0,1,3.21-2.77,69.5,69.5,0,0,1,12.41-8.56,5.18,5.18,0,0,1,1.75-.59,22.27,22.27,0,0,1,3.72-.22A5,5,0,0,1,395.93,74c1.86,2,3.72,3.92,5.67,5.79a47,47,0,0,1,4.68,5.84c2.46,3.25,4.95,6.48,7.54,9.63a42.14,42.14,0,0,0,3.89,3.85,1.65,1.65,0,0,1,.61,1.15c.4,4.56.79,9.12,1.25,13.67A101.9,101.9,0,0,0,422,129.1a66,66,0,0,1,1.1,6.64c.65,4.32,1.31,8.64,1.9,13,.36,2.68.51,5.38.89,8.06.46,3.33,1,6.66,1.6,10,.89,5,1.91,9.88,2.78,14.83.47,2.66.55,5.4,1.13,8,1.07,4.86,1.85,9.81,3.82,14.44a30.65,30.65,0,0,1,1,3.13,5.47,5.47,0,0,0,.69-.73c.91-1.44,1.83-2.87,2.69-4.35.67-1.14,1-1.25,2-.36l.35.35c2.06,2.12,1.7,1.3,1.7,4.61s-.08,6.74,0,10.11c.1,3.07.38,6.14.64,9.21a180.68,180.68,0,0,0,2.52,17.91c1.59,8.55,2.87,17.14,4.12,25.75.48,3.29,1.19,6.55,1.67,9.84.4,2.71.74,5.45.87,8.18.23,4.86.35,9.73.38,14.6,0,2.57-.32,5.15-.33,7.73a117.63,117.63,0,0,0,.91,13.56c.5,4.5,1,9,1.45,13.52.62,5.63.68,11.29.93,16.94A64.71,64.71,0,0,1,455,370.1a55.29,55.29,0,0,0-1.17,9.4c-.07,2.2-.12,4.41-.12,6.62,0,1.83,0,3.66.13,5.49a4.25,4.25,0,0,0,.43,1.4c1,2.33,2,4.64,3,7a26.58,26.58,0,0,1,1.75,8.14,88.74,88.74,0,0,1-.25,12.72c-.24,4.27-.57,8.54-.87,12.81q-.29,4.23-.57,8.46c0,.5,0,1,0,1.5,0,5.75,0,11.5,0,17.25a2.39,2.39,0,0,1-.8,1.82,8.87,8.87,0,0,1-5.13,2.3,2,2,0,0,1-1.37-.38c-1.08-.84-2.1-1.77-3.12-2.68-1.17-1.05-2.32-2.13-3.4-3.12-2.29,1.36-4.44,2.68-6.64,3.92a9.78,9.78,0,0,1-2.18.85c-1.48.42-3,.82-4.46,1.12-1.67.34-3.39.61-5-.21-1.37-.69-2.69-1.49-4-2.25s-2.78-1.65-4.19-2.43c-1-.54-2-1-3-1.53a2.09,2.09,0,0,0-2.74.56c-1.88,2-3.87,3.89-5.83,5.81a5,5,0,0,1-3.71,1.46,21.07,21.07,0,0,1-6.79-1.41c-1.76-.62-3.56-1.13-5.33-1.73a4.35,4.35,0,0,0-3.12.47,42,42,0,0,0-7.77,4.21,47.83,47.83,0,0,0-5.24,4.22,12.16,12.16,0,0,1-3.75,2.19,46.5,46.5,0,0,1-8.17,2.63,8.83,8.83,0,0,1-1.71.29,2.12,2.12,0,0,1-1.22-.46c-.57-.47-1-1.08-1.57-1.6-1.1-1.07-2.26-2.08-3.32-3.18a26.46,26.46,0,0,1-2.38-2.86c-.94-1.31-1.83-2.67-2.65-4.06-.48-.82-.72-1.78-1.2-2.6-1-1.69-2-3.32-3.06-5a1.51,1.51,0,0,0-1.48-.7c-2.37,0-4.75,0-7.12,0a6.56,6.56,0,0,1-1.74,0c-1.3-.37-2.23.3-3.17,1s-1.74,1.29-2.6,1.93l-1.2.89a3.78,3.78,0,0,1-.69-.88A18.89,18.89,0,0,1,325.4,456,113.82,113.82,0,0,0,322.9,444a42.08,42.08,0,0,1-.7-4.55,15.66,15.66,0,0,0-.28-2.09,23.38,23.38,0,0,1-.73-6.42c0-1.21-.08-2.41-.12-3.62a47.1,47.1,0,0,1,1-11,33.79,33.79,0,0,1,1-4.37,9.26,9.26,0,0,0-.39-6.47c-1.36-3.49-2.85-6.92-4.25-10.39a13,13,0,0,1-.9-2.84c-.58-3.78-1.11-7.57-1.57-11.37a14.24,14.24,0,0,1,2.11-10,28.42,28.42,0,0,0,3-6.13,70.89,70.89,0,0,0,3.79-12.39,33.14,33.14,0,0,0,.44-10.19c-.45-3.38-1-6.73-1.5-10.11-.4-2.92-.81-5.85-1-8.79-.29-3.73-.51-7.47-.54-11.21a40.34,40.34,0,0,1,.66-6.69c.41-2.5,1-5,1.55-7.44a61.26,61.26,0,0,0,1.05-11.16c0-.51-.14-1.08.46-1.6l1.78,4.18a4.92,4.92,0,0,0,1.72-2,12.44,12.44,0,0,0,1.55-5.85c0-4,0-7.92.15-11.86.17-3.61.61-7.2,1-10.8a7.8,7.8,0,0,1,1.51-3.79,13.4,13.4,0,0,0,2-4.81c.55-2.22,1-4.46,1.63-6.66a27,27,0,0,0,.84-7.29c0-4,0-8.08,0-12.12a19,19,0,0,0-.32-2.33,34.6,34.6,0,0,1-.5-4.07c-.06-4.08-.51-8.13-.94-12.18-.16-1.49-.2-3-.21-4.49,0-3.79,0-7.58,0-11.37-.06-3.62-.25-7.23-.35-10.85a18,18,0,0,1,.84-5.78,33.42,33.42,0,0,0,1.43-9.46c0-2.54.05-5.06-.12-7.6-.21-3.1-.2-6.22-.29-9.34a8.14,8.14,0,0,0-.72-3.39c-.54-1.12-.92-2.32-1.41-3.46a6.33,6.33,0,0,1-.45-3.53c.55-3.53,1.23-7.05,1.62-10.6a73.12,73.12,0,0,0,.29-8.1c0-2.24-.23-4.48-.31-6.73-.14-3.82-.24-7.65-.35-11.48A2.56,2.56,0,0,1,336.35,98.87Z"/></g></g></svg>